{
	"asset":{
		"generator":"Khronos glTF Blender I/O v3.6.27",
		"version":"2.0"
	},
	"scene":0,
	"scenes":[
		{
			"name":"Scene",
			"nodes":[
				7
			]
		}
	],
	"nodes":[
		{
			"name":"Bone.005",
			"translation":[
				-7.105427357601002e-15,
				1,
				1.9984014443252818e-15
			]
		},
		{
			"children":[
				0
			],
			"name":"Bone.004",
			"rotation":[
				0.7071067690849304,
				-3.0908619663705394e-08,
				-3.0908619663705394e-08,
				0.7071067690849304
			],
			"translation":[
				0,
				1,
				0
			]
		},
		{
			"children":[
				1
			],
			"name":"Bone",
			"translation":[
				4.371138828673793e-08,
				1,
				0
			]
		},
		{
			"name":"Bone.003",
			"rotation":[
				0,
				0,
				-1.0927846183506063e-08,
				1
			],
			"translation":[
				1.776356733521132e-15,
				2,
				0
			]
		},
		{
			"children":[
				3
			],
			"name":"Bone.001",
			"rotation":[
				-0.7071067690849304,
				7.727154027747929e-09,
				7.727154027747929e-09,
				0.7071067690849304
			],
			"translation":[
				-3.552713678800501e-15,
				0,
				-1
			]
		},
		{
			"name":"Bone.002",
			"rotation":[
				1,
				-3.278353943869661e-08,
				-3.278353943869661e-08,
				0
			],
			"translation":[
				-4.371138828673793e-08,
				-1,
				0
			]
		},
		{
			"mesh":0,
			"name":"box",
			"skin":0
		},
		{
			"children":[
				6,
				2,
				4,
				5
			],
			"name":"Armature",
			"rotation":[
				0,
				0,
				0.7071068286895752,
				0.7071068286895752
			]
		}
	],
	"animations":[
		{
			"channels":[
				{
					"sampler":0,
					"target":{
						"node":2,
						"path":"translation"
					}
				},
				{
					"sampler":1,
					"target":{
						"node":2,
						"path":"rotation"
					}
				},
				{
					"sampler":2,
					"target":{
						"node":2,
						"path":"scale"
					}
				},
				{
					"sampler":3,
					"target":{
						"node":1,
						"path":"translation"
					}
				},
				{
					"sampler":4,
					"target":{
						"node":1,
						"path":"rotation"
					}
				},
				{
					"sampler":5,
					"target":{
						"node":1,
						"path":"scale"
					}
				},
				{
					"sampler":6,
					"target":{
						"node":0,
						"path":"translation"
					}
				},
				{
					"sampler":7,
					"target":{
						"node":0,
						"path":"rotation"
					}
				},
				{
					"sampler":8,
					"target":{
						"node":0,
						"path":"scale"
					}
				},
				{
					"sampler":9,
					"target":{
						"node":4,
						"path":"translation"
					}
				},
				{
					"sampler":10,
					"target":{
						"node":4,
						"path":"rotation"
					}
				},
				{
					"sampler":11,
					"target":{
						"node":4,
						"path":"scale"
					}
				},
				{
					"sampler":12,
					"target":{
						"node":3,
						"path":"translation"
					}
				},
				{
					"sampler":13,
					"target":{
						"node":3,
						"path":"rotation"
					}
				},
				{
					"sampler":14,
					"target":{
						"node":3,
						"path":"scale"
					}
				},
				{
					"sampler":15,
					"target":{
						"node":5,
						"path":"translation"
					}
				},
				{
					"sampler":16,
					"target":{
						"node":5,
						"path":"rotation"
					}
				},
				{
					"sampler":17,
					"target":{
						"node":5,
						"path":"scale"
					}
				}
			],
			"name":"ArmatureAction",
			"samplers":[
				{
					"input":19,
					"interpolation":"STEP",
					"output":20
				},
				{
					"input":21,
					"interpolation":"LINEAR",
					"output":22
				},
				{
					"input":19,
					"interpolation":"STEP",
					"output":23
				},
				{
					"input":19,
					"interpolation":"STEP",
					"output":24
				},
				{
					"input":19,
					"interpolation":"STEP",
					"output":25
				},
				{
					"input":19,
					"interpolation":"STEP",
					"output":26
				},
				{
					"input":19,
					"interpolation":"STEP",
					"output":27
				},
				{
					"input":21,
					"interpolation":"LINEAR",
					"output":28
				},
				{
					"input":19,
					"interpolation":"STEP",
					"output":29
				},
				{
					"input":19,
					"interpolation":"STEP",
					"output":30
				},
				{
					"input":21,
					"interpolation":"LINEAR",
					"output":31
				},
				{
					"input":19,
					"interpolation":"STEP",
					"output":32
				},
				{
					"input":19,
					"interpolation":"STEP",
					"output":33
				},
				{
					"input":21,
					"interpolation":"LINEAR",
					"output":34
				},
				{
					"input":19,
					"interpolation":"STEP",
					"output":35
				},
				{
					"input":19,
					"interpolation":"STEP",
					"output":36
				},
				{
					"input":21,
					"interpolation":"LINEAR",
					"output":37
				},
				{
					"input":19,
					"interpolation":"STEP",
					"output":38
				}
			]
		}
	],
	"materials":[
		{
			"doubleSided":true,
			"name":"Inside",
			"pbrMetallicRoughness":{
				"baseColorFactor":[
					0.8000000715255737,
					0.42528074979782104,
					0,
					1
				],
				"metallicFactor":0,
				"roughnessFactor":0.5
			}
		},
		{
			"doubleSided":true,
			"name":"Outside",
			"pbrMetallicRoughness":{
				"baseColorFactor":[
					0.8000000715255737,
					0.015435613691806793,
					0,
					1
				],
				"metallicFactor":0,
				"roughnessFactor":0.5
			}
		},
		{
			"doubleSided":true,
			"name":"Dim",
			"pbrMetallicRoughness":{
				"baseColorFactor":[
					0.800000011920929,
					0.800000011920929,
					0.800000011920929,
					1
				],
				"metallicFactor":0,
				"roughnessFactor":0.5
			}
		}
	],
	"meshes":[
		{
			"name":"Plane",
			"primitives":[
				{
					"attributes":{
						"POSITION":0,
						"NORMAL":1,
						"TEXCOORD_0":2,
						"JOINTS_0":3,
						"WEIGHTS_0":4
					},
					"indices":5,
					"material":0
				},
				{
					"attributes":{
						"POSITION":6,
						"NORMAL":7,
						"TEXCOORD_0":8,
						"JOINTS_0":9,
						"WEIGHTS_0":10
					},
					"indices":11,
					"material":1
				},
				{
					"attributes":{
						"POSITION":12,
						"NORMAL":13,
						"TEXCOORD_0":14,
						"JOINTS_0":15,
						"WEIGHTS_0":16
					},
					"indices":17,
					"material":2
				}
			]
		}
	],
	"skins":[
		{
			"inverseBindMatrices":18,
			"joints":[
				2,
				1,
				0,
				4,
				3,
				5
			],
			"name":"Armature"
		}
	],
	"accessors":[
		{
			"bufferView":0,
			"componentType":5126,
			"count":206,
			"max":[
				3.0230941772460938,
				0.036181360483169556,
				3.0230941772460938
			],
			"min":[
				-3.0282840728759766,
				0,
				-5.023094177246094
			],
			"type":"VEC3"
		},
		{
			"bufferView":1,
			"componentType":5126,
			"count":206,
			"type":"VEC3"
		},
		{
			"bufferView":2,
			"componentType":5126,
			"count":206,
			"type":"VEC2"
		},
		{
			"bufferView":3,
			"componentType":5121,
			"count":206,
			"type":"VEC4"
		},
		{
			"bufferView":4,
			"componentType":5126,
			"count":206,
			"type":"VEC4"
		},
		{
			"bufferView":5,
			"componentType":5123,
			"count":324,
			"type":"SCALAR"
		},
		{
			"bufferView":6,
			"componentType":5126,
			"count":206,
			"max":[
				3.0230941772460938,
				-0.029999997466802597,
				3.0230941772460938
			],
			"min":[
				-3.0282840728759766,
				-0.06618136167526245,
				-5.023094177246094
			],
			"type":"VEC3"
		},
		{
			"bufferView":7,
			"componentType":5126,
			"count":206,
			"type":"VEC3"
		},
		{
			"bufferView":8,
			"componentType":5126,
			"count":206,
			"type":"VEC2"
		},
		{
			"bufferView":9,
			"componentType":5121,
			"count":206,
			"type":"VEC4"
		},
		{
			"bufferView":10,
			"componentType":5126,
			"count":206,
			"type":"VEC4"
		},
		{
			"bufferView":11,
			"componentType":5123,
			"count":324,
			"type":"SCALAR"
		},
		{
			"bufferView":12,
			"componentType":5126,
			"count":496,
			"max":[
				3.0230941772460938,
				0.036181360483169556,
				3.0230941772460938
			],
			"min":[
				-3.0282840728759766,
				-0.06618136167526245,
				-5.023094177246094
			],
			"type":"VEC3"
		},
		{
			"bufferView":13,
			"componentType":5126,
			"count":496,
			"type":"VEC3"
		},
		{
			"bufferView":14,
			"componentType":5126,
			"count":496,
			"type":"VEC2"
		},
		{
			"bufferView":15,
			"componentType":5121,
			"count":496,
			"type":"VEC4"
		},
		{
			"bufferView":16,
			"componentType":5126,
			"count":496,
			"type":"VEC4"
		},
		{
			"bufferView":17,
			"componentType":5123,
			"count":756,
			"type":"SCALAR"
		},
		{
			"bufferView":18,
			"componentType":5126,
			"count":6,
			"type":"MAT4"
		},
		{
			"bufferView":19,
			"componentType":5126,
			"count":2,
			"max":[
				4.166666666666667
			],
			"min":[
				0.041666666666666664
			],
			"type":"SCALAR"
		},
		{
			"bufferView":20,
			"componentType":5126,
			"count":2,
			"type":"VEC3"
		},
		{
			"bufferView":21,
			"componentType":5126,
			"count":100,
			"max":[
				4.166666666666667
			],
			"min":[
				0.041666666666666664
			],
			"type":"SCALAR"
		},
		{
			"bufferView":22,
			"componentType":5126,
			"count":100,
			"type":"VEC4"
		},
		{
			"bufferView":23,
			"componentType":5126,
			"count":2,
			"type":"VEC3"
		},
		{
			"bufferView":24,
			"componentType":5126,
			"count":2,
			"type":"VEC3"
		},
		{
			"bufferView":25,
			"componentType":5126,
			"count":2,
			"type":"VEC4"
		},
		{
			"bufferView":26,
			"componentType":5126,
			"count":2,
			"type":"VEC3"
		},
		{
			"bufferView":27,
			"componentType":5126,
			"count":2,
			"type":"VEC3"
		},
		{
			"bufferView":28,
			"componentType":5126,
			"count":100,
			"type":"VEC4"
		},
		{
			"bufferView":29,
			"componentType":5126,
			"count":2,
			"type":"VEC3"
		},
		{
			"bufferView":30,
			"componentType":5126,
			"count":2,
			"type":"VEC3"
		},
		{
			"bufferView":31,
			"componentType":5126,
			"count":100,
			"type":"VEC4"
		},
		{
			"bufferView":32,
			"componentType":5126,
			"count":2,
			"type":"VEC3"
		},
		{
			"bufferView":33,
			"componentType":5126,
			"count":2,
			"type":"VEC3"
		},
		{
			"bufferView":34,
			"componentType":5126,
			"count":100,
			"type":"VEC4"
		},
		{
			"bufferView":35,
			"componentType":5126,
			"count":2,
			"type":"VEC3"
		},
		{
			"bufferView":36,
			"componentType":5126,
			"count":2,
			"type":"VEC3"
		},
		{
			"bufferView":37,
			"componentType":5126,
			"count":100,
			"type":"VEC4"
		},
		{
			"bufferView":38,
			"componentType":5126,
			"count":2,
			"type":"VEC3"
		}
	],
	"bufferViews":[
		{
			"buffer":0,
			"byteLength":2472,
			"byteOffset":0,
			"target":34962
		},
		{
			"buffer":0,
			"byteLength":2472,
			"byteOffset":2472,
			"target":34962
		},
		{
			"buffer":0,
			"byteLength":1648,
			"byteOffset":4944,
			"target":34962
		},
		{
			"buffer":0,
			"byteLength":824,
			"byteOffset":6592,
			"target":34962
		},
		{
			"buffer":0,
			"byteLength":3296,
			"byteOffset":7416,
			"target":34962
		},
		{
			"buffer":0,
			"byteLength":648,
			"byteOffset":10712,
			"target":34963
		},
		{
			"buffer":0,
			"byteLength":2472,
			"byteOffset":11360,
			"target":34962
		},
		{
			"buffer":0,
			"byteLength":2472,
			"byteOffset":13832,
			"target":34962
		},
		{
			"buffer":0,
			"byteLength":1648,
			"byteOffset":16304,
			"target":34962
		},
		{
			"buffer":0,
			"byteLength":824,
			"byteOffset":17952,
			"target":34962
		},
		{
			"buffer":0,
			"byteLength":3296,
			"byteOffset":18776,
			"target":34962
		},
		{
			"buffer":0,
			"byteLength":648,
			"byteOffset":22072,
			"target":34963
		},
		{
			"buffer":0,
			"byteLength":5952,
			"byteOffset":22720,
			"target":34962
		},
		{
			"buffer":0,
			"byteLength":5952,
			"byteOffset":28672,
			"target":34962
		},
		{
			"buffer":0,
			"byteLength":3968,
			"byteOffset":34624,
			"target":34962
		},
		{
			"buffer":0,
			"byteLength":1984,
			"byteOffset":38592,
			"target":34962
		},
		{
			"buffer":0,
			"byteLength":7936,
			"byteOffset":40576,
			"target":34962
		},
		{
			"buffer":0,
			"byteLength":1512,
			"byteOffset":48512,
			"target":34963
		},
		{
			"buffer":0,
			"byteLength":384,
			"byteOffset":50024
		},
		{
			"buffer":0,
			"byteLength":8,
			"byteOffset":50408
		},
		{
			"buffer":0,
			"byteLength":24,
			"byteOffset":50416
		},
		{
			"buffer":0,
			"byteLength":400,
			"byteOffset":50440
		},
		{
			"buffer":0,
			"byteLength":1600,
			"byteOffset":50840
		},
		{
			"buffer":0,
			"byteLength":24,
			"byteOffset":52440
		},
		{
			"buffer":0,
			"byteLength":24,
			"byteOffset":52464
		},
		{
			"buffer":0,
			"byteLength":32,
			"byteOffset":52488
		},
		{
			"buffer":0,
			"byteLength":24,
			"byteOffset":52520
		},
		{
			"buffer":0,
			"byteLength":24,
			"byteOffset":52544
		},
		{
			"buffer":0,
			"byteLength":1600,
			"byteOffset":52568
		},
		{
			"buffer":0,
			"byteLength":24,
			"byteOffset":54168
		},
		{
			"buffer":0,
			"byteLength":24,
			"byteOffset":54192
		},
		{
			"buffer":0,
			"byteLength":1600,
			"byteOffset":54216
		},
		{
			"buffer":0,
			"byteLength":24,
			"byteOffset":55816
		},
		{
			"buffer":0,
			"byteLength":24,
			"byteOffset":55840
		},
		{
			"buffer":0,
			"byteLength":1600,
			"byteOffset":55864
		},
		{
			"buffer":0,
			"byteLength":24,
			"byteOffset":57464
		},
		{
			"buffer":0,
			"byteLength":24,
			"byteOffset":57488
		},
		{
			"buffer":0,
			"byteLength":1600,
			"byteOffset":57512
		},
		{
			"buffer":0,
			"byteLength":24,
			"byteOffset":59112
		}
	],
	"buffers":[
		{
			"byteLength":59136,
			"uri":"data:application/octet-stream;base64,"
		}
	]
}
