{
    "asset" : {
        "generator" : "Khronos glTF Blender I/O v3.3.32",
        "version" : "2.0"
    },
    "scene" : 0,
    "scenes" : [
        {
            "name" : "Scene",
            "nodes" : [
                8
            ]
        }
    ],
    "nodes" : [
        {
            "name" : "Bone.006",
            "rotation" : [
                -0.20433801412582397,
                -1.1582372394514096e-07,
                2.5723132068833365e-08,
                0.9789004921913147
            ],
            "scale" : [
                1,
                0.9999997615814209,
                0.9999998211860657
            ],
            "translation" : [
                -3.220340660803345e-14,
                0.45339593291282654,
                3.7252896323280993e-09
            ]
        },
        {
            "children" : [
                0
            ],
            "name" : "Bone.005",
            "rotation" : [
                0.4320378303527832,
                -1.4028110228991864e-08,
                -1.726288090253547e-08,
                0.9018555283546448
            ],
            "scale" : [
                1,
                0.9999999403953552,
                0.9999998807907104
            ],
            "translation" : [
                -5.662137425588298e-15,
                0.6110643744468689,
                9.313226456697521e-08
            ]
        },
        {
            "children" : [
                1
            ],
            "name" : "Bone.004",
            "rotation" : [
                -0.7305647134780884,
                1.2518749592516087e-08,
                -1.3542828192214529e-08,
                0.6828435063362122
            ],
            "translation" : [
                -7.105427357601002e-15,
                0.47656187415122986,
                -8.94069742685133e-08
            ]
        },
        {
            "children" : [
                2
            ],
            "name" : "Bone.003",
            "rotation" : [
                -0.2620224356651306,
                9.977717496667537e-08,
                -1.5203204029035078e-08,
                0.9650617837905884
            ],
            "scale" : [
                1,
                0.9999999403953552,
                0.9999999403953552
            ],
            "translation" : [
                -6.217248937900877e-15,
                0.6320957541465759,
                5.960464477539063e-08
            ]
        },
        {
            "children" : [
                3
            ],
            "name" : "Bone.002",
            "rotation" : [
                0.7291248440742493,
                -5.3255782006544905e-09,
                -5.67374414117694e-09,
                0.6843807697296143
            ],
            "translation" : [
                4.440892098500626e-16,
                0.49438679218292236,
                -2.980232949312267e-08
            ]
        },
        {
            "children" : [
                4
            ],
            "name" : "Bone.001",
            "rotation" : [
                4.470348358154297e-08,
                -6.3091936119974434e-09,
                -2.1649348980190553e-15,
                1
            ],
            "translation" : [
                1.1102230246251565e-16,
                0.5,
                7.450577932388569e-09
            ]
        },
        {
            "children" : [
                5
            ],
            "name" : "Bone",
            "rotation" : [
                -0.18301275372505188,
                0.1830126792192459,
                -0.6830127239227295,
                0.6830126643180847
            ]
        },
        {
            "mesh" : 0,
            "name" : "Plane",
            "skin" : 0
        },
        {
            "children" : [
                7,
                6
            ],
            "name" : "Armature",
            "scale" : [
                2.0790700912475586,
                2,
                2
            ],
            "translation" : [
                0.06863120198249817,
                0,
                0.4330460727214813
            ]
        }
    ],
    "animations" : [
        {
            "channels" : [
                {
                    "sampler" : 0,
                    "target" : {
                        "node" : 6,
                        "path" : "translation"
                    }
                },
                {
                    "sampler" : 1,
                    "target" : {
                        "node" : 6,
                        "path" : "rotation"
                    }
                },
                {
                    "sampler" : 2,
                    "target" : {
                        "node" : 6,
                        "path" : "scale"
                    }
                },
                {
                    "sampler" : 3,
                    "target" : {
                        "node" : 5,
                        "path" : "translation"
                    }
                },
                {
                    "sampler" : 4,
                    "target" : {
                        "node" : 5,
                        "path" : "rotation"
                    }
                },
                {
                    "sampler" : 5,
                    "target" : {
                        "node" : 5,
                        "path" : "scale"
                    }
                },
                {
                    "sampler" : 6,
                    "target" : {
                        "node" : 4,
                        "path" : "translation"
                    }
                },
                {
                    "sampler" : 7,
                    "target" : {
                        "node" : 4,
                        "path" : "rotation"
                    }
                },
                {
                    "sampler" : 8,
                    "target" : {
                        "node" : 4,
                        "path" : "scale"
                    }
                },
                {
                    "sampler" : 9,
                    "target" : {
                        "node" : 3,
                        "path" : "translation"
                    }
                },
                {
                    "sampler" : 10,
                    "target" : {
                        "node" : 3,
                        "path" : "rotation"
                    }
                },
                {
                    "sampler" : 11,
                    "target" : {
                        "node" : 3,
                        "path" : "scale"
                    }
                },
                {
                    "sampler" : 12,
                    "target" : {
                        "node" : 2,
                        "path" : "translation"
                    }
                },
                {
                    "sampler" : 13,
                    "target" : {
                        "node" : 2,
                        "path" : "rotation"
                    }
                },
                {
                    "sampler" : 14,
                    "target" : {
                        "node" : 2,
                        "path" : "scale"
                    }
                },
                {
                    "sampler" : 15,
                    "target" : {
                        "node" : 1,
                        "path" : "translation"
                    }
                },
                {
                    "sampler" : 16,
                    "target" : {
                        "node" : 1,
                        "path" : "rotation"
                    }
                },
                {
                    "sampler" : 17,
                    "target" : {
                        "node" : 1,
                        "path" : "scale"
                    }
                },
                {
                    "sampler" : 18,
                    "target" : {
                        "node" : 0,
                        "path" : "translation"
                    }
                },
                {
                    "sampler" : 19,
                    "target" : {
                        "node" : 0,
                        "path" : "rotation"
                    }
                },
                {
                    "sampler" : 20,
                    "target" : {
                        "node" : 0,
                        "path" : "scale"
                    }
                }
            ],
            "name" : "ArmatureAction",
            "samplers" : [
                {
                    "input" : 13,
                    "interpolation" : "LINEAR",
                    "output" : 14
                },
                {
                    "input" : 13,
                    "interpolation" : "LINEAR",
                    "output" : 15
                },
                {
                    "input" : 13,
                    "interpolation" : "LINEAR",
                    "output" : 16
                },
                {
                    "input" : 13,
                    "interpolation" : "LINEAR",
                    "output" : 17
                },
                {
                    "input" : 13,
                    "interpolation" : "LINEAR",
                    "output" : 18
                },
                {
                    "input" : 13,
                    "interpolation" : "LINEAR",
                    "output" : 19
                },
                {
                    "input" : 13,
                    "interpolation" : "LINEAR",
                    "output" : 20
                },
                {
                    "input" : 13,
                    "interpolation" : "LINEAR",
                    "output" : 21
                },
                {
                    "input" : 13,
                    "interpolation" : "LINEAR",
                    "output" : 22
                },
                {
                    "input" : 13,
                    "interpolation" : "LINEAR",
                    "output" : 23
                },
                {
                    "input" : 13,
                    "interpolation" : "LINEAR",
                    "output" : 24
                },
                {
                    "input" : 13,
                    "interpolation" : "LINEAR",
                    "output" : 25
                },
                {
                    "input" : 13,
                    "interpolation" : "LINEAR",
                    "output" : 26
                },
                {
                    "input" : 13,
                    "interpolation" : "LINEAR",
                    "output" : 27
                },
                {
                    "input" : 13,
                    "interpolation" : "LINEAR",
                    "output" : 28
                },
                {
                    "input" : 13,
                    "interpolation" : "LINEAR",
                    "output" : 29
                },
                {
                    "input" : 13,
                    "interpolation" : "LINEAR",
                    "output" : 30
                },
                {
                    "input" : 13,
                    "interpolation" : "LINEAR",
                    "output" : 31
                },
                {
                    "input" : 13,
                    "interpolation" : "LINEAR",
                    "output" : 32
                },
                {
                    "input" : 13,
                    "interpolation" : "LINEAR",
                    "output" : 33
                },
                {
                    "input" : 13,
                    "interpolation" : "LINEAR",
                    "output" : 34
                }
            ]
        }
    ],
    "materials" : [
        {
            "doubleSided" : true,
            "name" : "Material.001",
            "pbrMetallicRoughness" : {
                "baseColorFactor" : [
                    0.8000000715255737,
                    0.6137390732765198,
                    0.0362832136452198,
                    1
                ],
                "metallicFactor" : 0,
                "roughnessFactor" : 0.5
            }
        },
        {
            "doubleSided" : true,
            "name" : "Material.002",
            "pbrMetallicRoughness" : {
                "baseColorFactor" : [
                    0.8000000715255737,
                    0.08949447423219681,
                    0.018311770632863045,
                    1
                ],
                "metallicFactor" : 0,
                "roughnessFactor" : 0.5
            }
        }
    ],
    "meshes" : [
        {
            "name" : "Plane",
            "primitives" : [
                {
                    "attributes" : {
                        "POSITION" : 0,
                        "NORMAL" : 1,
                        "TEXCOORD_0" : 2,
                        "JOINTS_0" : 3,
                        "WEIGHTS_0" : 4
                    },
                    "indices" : 5,
                    "material" : 0
                },
                {
                    "attributes" : {
                        "POSITION" : 6,
                        "NORMAL" : 7,
                        "TEXCOORD_0" : 8,
                        "JOINTS_0" : 9,
                        "WEIGHTS_0" : 10
                    },
                    "indices" : 11,
                    "material" : 1
                }
            ]
        }
    ],
    "skins" : [
        {
            "inverseBindMatrices" : 12,
            "joints" : [
                6,
                5,
                4,
                3,
                2,
                1,
                0
            ],
            "name" : "Armature"
        }
    ],
    "accessors" : [
        {
            "bufferView" : 0,
            "componentType" : 5126,
            "count" : 48,
            "max" : [
                7.930407524108887,
                0.08718898892402649,
                1.7464070320129395
            ],
            "min" : [
                -1.9903205633163452,
                -0.09017486870288849,
                -1.990652322769165
            ],
            "type" : "VEC3"
        },
        {
            "bufferView" : 1,
            "componentType" : 5126,
            "count" : 48,
            "type" : "VEC3"
        },
        {
            "bufferView" : 2,
            "componentType" : 5126,
            "count" : 48,
            "type" : "VEC2"
        },
        {
            "bufferView" : 3,
            "componentType" : 5121,
            "count" : 48,
            "type" : "VEC4"
        },
        {
            "bufferView" : 4,
            "componentType" : 5126,
            "count" : 48,
            "type" : "VEC4"
        },
        {
            "bufferView" : 5,
            "componentType" : 5123,
            "count" : 60,
            "type" : "SCALAR"
        },
        {
            "bufferView" : 6,
            "componentType" : 5126,
            "count" : 384,
            "max" : [
                7.960233211517334,
                0.11532320082187653,
                1.7750248908996582
            ],
            "min" : [
                -2.018162965774536,
                -0.11312560737133026,
                -2.0199310779571533
            ],
            "type" : "VEC3"
        },
        {
            "bufferView" : 7,
            "componentType" : 5126,
            "count" : 384,
            "type" : "VEC3"
        },
        {
            "bufferView" : 8,
            "componentType" : 5126,
            "count" : 384,
            "type" : "VEC2"
        },
        {
            "bufferView" : 9,
            "componentType" : 5121,
            "count" : 384,
            "type" : "VEC4"
        },
        {
            "bufferView" : 10,
            "componentType" : 5126,
            "count" : 384,
            "type" : "VEC4"
        },
        {
            "bufferView" : 11,
            "componentType" : 5123,
            "count" : 576,
            "type" : "SCALAR"
        },
        {
            "bufferView" : 12,
            "componentType" : 5126,
            "count" : 7,
            "type" : "MAT4"
        },
        {
            "bufferView" : 13,
            "componentType" : 5126,
            "count" : 100,
            "max" : [
                4.166666666666667
            ],
            "min" : [
                0.041666666666666664
            ],
            "type" : "SCALAR"
        },
        {
            "bufferView" : 14,
            "componentType" : 5126,
            "count" : 100,
            "type" : "VEC3"
        },
        {
            "bufferView" : 15,
            "componentType" : 5126,
            "count" : 100,
            "type" : "VEC4"
        },
        {
            "bufferView" : 16,
            "componentType" : 5126,
            "count" : 100,
            "type" : "VEC3"
        },
        {
            "bufferView" : 17,
            "componentType" : 5126,
            "count" : 100,
            "type" : "VEC3"
        },
        {
            "bufferView" : 18,
            "componentType" : 5126,
            "count" : 100,
            "type" : "VEC4"
        },
        {
            "bufferView" : 19,
            "componentType" : 5126,
            "count" : 100,
            "type" : "VEC3"
        },
        {
            "bufferView" : 20,
            "componentType" : 5126,
            "count" : 100,
            "type" : "VEC3"
        },
        {
            "bufferView" : 21,
            "componentType" : 5126,
            "count" : 100,
            "type" : "VEC4"
        },
        {
            "bufferView" : 22,
            "componentType" : 5126,
            "count" : 100,
            "type" : "VEC3"
        },
        {
            "bufferView" : 23,
            "componentType" : 5126,
            "count" : 100,
            "type" : "VEC3"
        },
        {
            "bufferView" : 24,
            "componentType" : 5126,
            "count" : 100,
            "type" : "VEC4"
        },
        {
            "bufferView" : 25,
            "componentType" : 5126,
            "count" : 100,
            "type" : "VEC3"
        },
        {
            "bufferView" : 26,
            "componentType" : 5126,
            "count" : 100,
            "type" : "VEC3"
        },
        {
            "bufferView" : 27,
            "componentType" : 5126,
            "count" : 100,
            "type" : "VEC4"
        },
        {
            "bufferView" : 28,
            "componentType" : 5126,
            "count" : 100,
            "type" : "VEC3"
        },
        {
            "bufferView" : 29,
            "componentType" : 5126,
            "count" : 100,
            "type" : "VEC3"
        },
        {
            "bufferView" : 30,
            "componentType" : 5126,
            "count" : 100,
            "type" : "VEC4"
        },
        {
            "bufferView" : 31,
            "componentType" : 5126,
            "count" : 100,
            "type" : "VEC3"
        },
        {
            "bufferView" : 32,
            "componentType" : 5126,
            "count" : 100,
            "type" : "VEC3"
        },
        {
            "bufferView" : 33,
            "componentType" : 5126,
            "count" : 100,
            "type" : "VEC4"
        },
        {
            "bufferView" : 34,
            "componentType" : 5126,
            "count" : 100,
            "type" : "VEC3"
        }
    ],
    "bufferViews" : [
        {
            "buffer" : 0,
            "byteLength" : 576,
            "byteOffset" : 0,
            "target" : 34962
        },
        {
            "buffer" : 0,
            "byteLength" : 576,
            "byteOffset" : 576,
            "target" : 34962
        },
        {
            "buffer" : 0,
            "byteLength" : 384,
            "byteOffset" : 1152,
            "target" : 34962
        },
        {
            "buffer" : 0,
            "byteLength" : 192,
            "byteOffset" : 1536,
            "target" : 34962
        },
        {
            "buffer" : 0,
            "byteLength" : 768,
            "byteOffset" : 1728,
            "target" : 34962
        },
        {
            "buffer" : 0,
            "byteLength" : 120,
            "byteOffset" : 2496,
            "target" : 34963
        },
        {
            "buffer" : 0,
            "byteLength" : 4608,
            "byteOffset" : 2616,
            "target" : 34962
        },
        {
            "buffer" : 0,
            "byteLength" : 4608,
            "byteOffset" : 7224,
            "target" : 34962
        },
        {
            "buffer" : 0,
            "byteLength" : 3072,
            "byteOffset" : 11832,
            "target" : 34962
        },
        {
            "buffer" : 0,
            "byteLength" : 1536,
            "byteOffset" : 14904,
            "target" : 34962
        },
        {
            "buffer" : 0,
            "byteLength" : 6144,
            "byteOffset" : 16440,
            "target" : 34962
        },
        {
            "buffer" : 0,
            "byteLength" : 1152,
            "byteOffset" : 22584,
            "target" : 34963
        },
        {
            "buffer" : 0,
            "byteLength" : 448,
            "byteOffset" : 23736
        },
        {
            "buffer" : 0,
            "byteLength" : 400,
            "byteOffset" : 24184
        },
        {
            "buffer" : 0,
            "byteLength" : 1200,
            "byteOffset" : 24584
        },
        {
            "buffer" : 0,
            "byteLength" : 1600,
            "byteOffset" : 25784
        },
        {
            "buffer" : 0,
            "byteLength" : 1200,
            "byteOffset" : 27384
        },
        {
            "buffer" : 0,
            "byteLength" : 1200,
            "byteOffset" : 28584
        },
        {
            "buffer" : 0,
            "byteLength" : 1600,
            "byteOffset" : 29784
        },
        {
            "buffer" : 0,
            "byteLength" : 1200,
            "byteOffset" : 31384
        },
        {
            "buffer" : 0,
            "byteLength" : 1200,
            "byteOffset" : 32584
        },
        {
            "buffer" : 0,
            "byteLength" : 1600,
            "byteOffset" : 33784
        },
        {
            "buffer" : 0,
            "byteLength" : 1200,
            "byteOffset" : 35384
        },
        {
            "buffer" : 0,
            "byteLength" : 1200,
            "byteOffset" : 36584
        },
        {
            "buffer" : 0,
            "byteLength" : 1600,
            "byteOffset" : 37784
        },
        {
            "buffer" : 0,
            "byteLength" : 1200,
            "byteOffset" : 39384
        },
        {
            "buffer" : 0,
            "byteLength" : 1200,
            "byteOffset" : 40584
        },
        {
            "buffer" : 0,
            "byteLength" : 1600,
            "byteOffset" : 41784
        },
        {
            "buffer" : 0,
            "byteLength" : 1200,
            "byteOffset" : 43384
        },
        {
            "buffer" : 0,
            "byteLength" : 1200,
            "byteOffset" : 44584
        },
        {
            "buffer" : 0,
            "byteLength" : 1600,
            "byteOffset" : 45784
        },
        {
            "buffer" : 0,
            "byteLength" : 1200,
            "byteOffset" : 47384
        },
        {
            "buffer" : 0,
            "byteLength" : 1200,
            "byteOffset" : 48584
        },
        {
            "buffer" : 0,
            "byteLength" : 1600,
            "byteOffset" : 49784
        },
        {
            "buffer" : 0,
            "byteLength" : 1200,
            "byteOffset" : 51384
        }
    ],
    "buffers" : [
        {
            "byteLength" : 52584,
            "uri" : "data:application/octet-stream;base64,"
        }
    ]
}
