{
    "asset" : {
        "generator" : "Khronos glTF Blender I/O v3.3.32",
        "version" : "2.0"
    },
    "scene" : 0,
    "scenes" : [
        {
            "name" : "Scene",
            "nodes" : [
                8
            ]
        }
    ],
    "nodes" : [
        {
            "name" : "Bone.006",
            "rotation" : [
                -0.2043379843235016,
                -1.1582369552343152e-07,
                2.572312141069233e-08,
                0.9789004325866699
            ],
            "scale" : [
                1,
                0.9999998211860657,
                0.9999998807907104
            ],
            "translation" : [
                -2.5729418595688003e-14,
                0.45339614152908325,
                -4.470348358154297e-08
            ]
        },
        {
            "children" : [
                0
            ],
            "name" : "Bone.005",
            "rotation" : [
                0.4320378303527832,
                -1.4028114669883962e-08,
                -1.726288445524915e-08,
                0.9018555283546448
            ],
            "translation" : [
                1.5987211554602254e-14,
                0.6110644340515137,
                2.1606683731079102e-07
            ]
        },
        {
            "children" : [
                1
            ],
            "name" : "Bone.004",
            "rotation" : [
                -0.7305647134780884,
                1.2518748704337668e-08,
                -1.3542817534073492e-08,
                0.6828435063362122
            ],
            "scale" : [
                1,
                0.9999999403953552,
                0.9999998807907104
            ],
            "translation" : [
                -1.2434497875801753e-14,
                0.47656187415122986,
                8.940696005765858e-08
            ]
        },
        {
            "children" : [
                2
            ],
            "name" : "Bone.003",
            "rotation" : [
                -0.2620224356651306,
                9.977717496667537e-08,
                -1.5203207581748757e-08,
                0.9650617837905884
            ],
            "scale" : [
                1,
                0.9999999403953552,
                0.9999999403953552
            ],
            "translation" : [
                -1.1546319456101628e-14,
                0.6320958137512207,
                1.6391277313232422e-07
            ]
        },
        {
            "children" : [
                3
            ],
            "name" : "Bone.002",
            "rotation" : [
                0.7291248440742493,
                -5.325575536119231e-09,
                -5.673748582069038e-09,
                0.6843807697296143
            ],
            "translation" : [
                -5.10702591327572e-15,
                0.4943867623806,
                7.4505748237641e-09
            ]
        },
        {
            "children" : [
                4
            ],
            "name" : "Bone.001",
            "rotation" : [
                4.470348358154297e-08,
                -6.3091936119974434e-09,
                -2.9976021664879227e-15,
                1
            ],
            "translation" : [
                1.4432899320127035e-15,
                0.5,
                2.9802320611338473e-08
            ]
        },
        {
            "children" : [
                5
            ],
            "name" : "Bone",
            "rotation" : [
                -0.18301275372505188,
                0.1830126792192459,
                -0.6830127239227295,
                0.6830126643180847
            ]
        },
        {
            "mesh" : 0,
            "name" : "Plane",
            "skin" : 0
        },
        {
            "children" : [
                7,
                6
            ],
            "name" : "Armature",
            "scale" : [
                1.0790729522705078,
                1,
                1
            ],
            "translation" : [
                0.06863120198249817,
                0,
                0.4330460727214813
            ]
        }
    ],
    "animations" : [
        {
            "channels" : [
                {
                    "sampler" : 0,
                    "target" : {
                        "node" : 6,
                        "path" : "translation"
                    }
                },
                {
                    "sampler" : 1,
                    "target" : {
                        "node" : 6,
                        "path" : "rotation"
                    }
                },
                {
                    "sampler" : 2,
                    "target" : {
                        "node" : 6,
                        "path" : "scale"
                    }
                },
                {
                    "sampler" : 3,
                    "target" : {
                        "node" : 5,
                        "path" : "translation"
                    }
                },
                {
                    "sampler" : 4,
                    "target" : {
                        "node" : 5,
                        "path" : "rotation"
                    }
                },
                {
                    "sampler" : 5,
                    "target" : {
                        "node" : 5,
                        "path" : "scale"
                    }
                },
                {
                    "sampler" : 6,
                    "target" : {
                        "node" : 4,
                        "path" : "translation"
                    }
                },
                {
                    "sampler" : 7,
                    "target" : {
                        "node" : 4,
                        "path" : "rotation"
                    }
                },
                {
                    "sampler" : 8,
                    "target" : {
                        "node" : 4,
                        "path" : "scale"
                    }
                },
                {
                    "sampler" : 9,
                    "target" : {
                        "node" : 3,
                        "path" : "translation"
                    }
                },
                {
                    "sampler" : 10,
                    "target" : {
                        "node" : 3,
                        "path" : "rotation"
                    }
                },
                {
                    "sampler" : 11,
                    "target" : {
                        "node" : 3,
                        "path" : "scale"
                    }
                },
                {
                    "sampler" : 12,
                    "target" : {
                        "node" : 2,
                        "path" : "translation"
                    }
                },
                {
                    "sampler" : 13,
                    "target" : {
                        "node" : 2,
                        "path" : "rotation"
                    }
                },
                {
                    "sampler" : 14,
                    "target" : {
                        "node" : 2,
                        "path" : "scale"
                    }
                },
                {
                    "sampler" : 15,
                    "target" : {
                        "node" : 1,
                        "path" : "translation"
                    }
                },
                {
                    "sampler" : 16,
                    "target" : {
                        "node" : 1,
                        "path" : "rotation"
                    }
                },
                {
                    "sampler" : 17,
                    "target" : {
                        "node" : 1,
                        "path" : "scale"
                    }
                },
                {
                    "sampler" : 18,
                    "target" : {
                        "node" : 0,
                        "path" : "translation"
                    }
                },
                {
                    "sampler" : 19,
                    "target" : {
                        "node" : 0,
                        "path" : "rotation"
                    }
                },
                {
                    "sampler" : 20,
                    "target" : {
                        "node" : 0,
                        "path" : "scale"
                    }
                }
            ],
            "name" : "ArmatureAction",
            "samplers" : [
                {
                    "input" : 7,
                    "interpolation" : "LINEAR",
                    "output" : 8
                },
                {
                    "input" : 7,
                    "interpolation" : "LINEAR",
                    "output" : 9
                },
                {
                    "input" : 7,
                    "interpolation" : "LINEAR",
                    "output" : 10
                },
                {
                    "input" : 7,
                    "interpolation" : "LINEAR",
                    "output" : 11
                },
                {
                    "input" : 7,
                    "interpolation" : "LINEAR",
                    "output" : 12
                },
                {
                    "input" : 7,
                    "interpolation" : "LINEAR",
                    "output" : 13
                },
                {
                    "input" : 7,
                    "interpolation" : "LINEAR",
                    "output" : 14
                },
                {
                    "input" : 7,
                    "interpolation" : "LINEAR",
                    "output" : 15
                },
                {
                    "input" : 7,
                    "interpolation" : "LINEAR",
                    "output" : 16
                },
                {
                    "input" : 7,
                    "interpolation" : "LINEAR",
                    "output" : 17
                },
                {
                    "input" : 7,
                    "interpolation" : "LINEAR",
                    "output" : 18
                },
                {
                    "input" : 7,
                    "interpolation" : "LINEAR",
                    "output" : 19
                },
                {
                    "input" : 7,
                    "interpolation" : "LINEAR",
                    "output" : 20
                },
                {
                    "input" : 7,
                    "interpolation" : "LINEAR",
                    "output" : 21
                },
                {
                    "input" : 7,
                    "interpolation" : "LINEAR",
                    "output" : 22
                },
                {
                    "input" : 7,
                    "interpolation" : "LINEAR",
                    "output" : 23
                },
                {
                    "input" : 7,
                    "interpolation" : "LINEAR",
                    "output" : 24
                },
                {
                    "input" : 7,
                    "interpolation" : "LINEAR",
                    "output" : 25
                },
                {
                    "input" : 7,
                    "interpolation" : "LINEAR",
                    "output" : 26
                },
                {
                    "input" : 7,
                    "interpolation" : "LINEAR",
                    "output" : 27
                },
                {
                    "input" : 7,
                    "interpolation" : "LINEAR",
                    "output" : 28
                }
            ]
        }
    ],
    "materials" : [
        {
            "doubleSided" : true,
            "name" : "Material.001",
            "pbrMetallicRoughness" : {
                "baseColorFactor" : [
                    0.8000000715255737,
                    0.6137390732765198,
                    0.0362832136452198,
                    1
                ],
                "metallicFactor" : 0,
                "roughnessFactor" : 0.5
            }
        }
    ],
    "meshes" : [
        {
            "name" : "Plane",
            "primitives" : [
                {
                    "attributes" : {
                        "POSITION" : 0,
                        "NORMAL" : 1,
                        "TEXCOORD_0" : 2,
                        "JOINTS_0" : 3,
                        "WEIGHTS_0" : 4
                    },
                    "indices" : 5,
                    "material" : 0
                }
            ]
        }
    ],
    "skins" : [
        {
            "inverseBindMatrices" : 6,
            "joints" : [
                6,
                5,
                4,
                3,
                2,
                1,
                0
            ],
            "name" : "Armature"
        }
    ],
    "accessors" : [
        {
            "bufferView" : 0,
            "componentType" : 5126,
            "count" : 432,
            "max" : [
                4.164507865905762,
                0.05766160041093826,
                1.104035496711731
            ],
            "min" : [
                -1.0144506692886353,
                -0.05656280368566513,
                -0.7934425473213196
            ],
            "type" : "VEC3"
        },
        {
            "bufferView" : 1,
            "componentType" : 5126,
            "count" : 432,
            "type" : "VEC3"
        },
        {
            "bufferView" : 2,
            "componentType" : 5126,
            "count" : 432,
            "type" : "VEC2"
        },
        {
            "bufferView" : 3,
            "componentType" : 5121,
            "count" : 432,
            "type" : "VEC4"
        },
        {
            "bufferView" : 4,
            "componentType" : 5126,
            "count" : 432,
            "type" : "VEC4"
        },
        {
            "bufferView" : 5,
            "componentType" : 5123,
            "count" : 636,
            "type" : "SCALAR"
        },
        {
            "bufferView" : 6,
            "componentType" : 5126,
            "count" : 7,
            "type" : "MAT4"
        },
        {
            "bufferView" : 7,
            "componentType" : 5126,
            "count" : 100,
            "max" : [
                4.166666666666667
            ],
            "min" : [
                0.041666666666666664
            ],
            "type" : "SCALAR"
        },
        {
            "bufferView" : 8,
            "componentType" : 5126,
            "count" : 100,
            "type" : "VEC3"
        },
        {
            "bufferView" : 9,
            "componentType" : 5126,
            "count" : 100,
            "type" : "VEC4"
        },
        {
            "bufferView" : 10,
            "componentType" : 5126,
            "count" : 100,
            "type" : "VEC3"
        },
        {
            "bufferView" : 11,
            "componentType" : 5126,
            "count" : 100,
            "type" : "VEC3"
        },
        {
            "bufferView" : 12,
            "componentType" : 5126,
            "count" : 100,
            "type" : "VEC4"
        },
        {
            "bufferView" : 13,
            "componentType" : 5126,
            "count" : 100,
            "type" : "VEC3"
        },
        {
            "bufferView" : 14,
            "componentType" : 5126,
            "count" : 100,
            "type" : "VEC3"
        },
        {
            "bufferView" : 15,
            "componentType" : 5126,
            "count" : 100,
            "type" : "VEC4"
        },
        {
            "bufferView" : 16,
            "componentType" : 5126,
            "count" : 100,
            "type" : "VEC3"
        },
        {
            "bufferView" : 17,
            "componentType" : 5126,
            "count" : 100,
            "type" : "VEC3"
        },
        {
            "bufferView" : 18,
            "componentType" : 5126,
            "count" : 100,
            "type" : "VEC4"
        },
        {
            "bufferView" : 19,
            "componentType" : 5126,
            "count" : 100,
            "type" : "VEC3"
        },
        {
            "bufferView" : 20,
            "componentType" : 5126,
            "count" : 100,
            "type" : "VEC3"
        },
        {
            "bufferView" : 21,
            "componentType" : 5126,
            "count" : 100,
            "type" : "VEC4"
        },
        {
            "bufferView" : 22,
            "componentType" : 5126,
            "count" : 100,
            "type" : "VEC3"
        },
        {
            "bufferView" : 23,
            "componentType" : 5126,
            "count" : 100,
            "type" : "VEC3"
        },
        {
            "bufferView" : 24,
            "componentType" : 5126,
            "count" : 100,
            "type" : "VEC4"
        },
        {
            "bufferView" : 25,
            "componentType" : 5126,
            "count" : 100,
            "type" : "VEC3"
        },
        {
            "bufferView" : 26,
            "componentType" : 5126,
            "count" : 100,
            "type" : "VEC3"
        },
        {
            "bufferView" : 27,
            "componentType" : 5126,
            "count" : 100,
            "type" : "VEC4"
        },
        {
            "bufferView" : 28,
            "componentType" : 5126,
            "count" : 100,
            "type" : "VEC3"
        }
    ],
    "bufferViews" : [
        {
            "buffer" : 0,
            "byteLength" : 5184,
            "byteOffset" : 0,
            "target" : 34962
        },
        {
            "buffer" : 0,
            "byteLength" : 5184,
            "byteOffset" : 5184,
            "target" : 34962
        },
        {
            "buffer" : 0,
            "byteLength" : 3456,
            "byteOffset" : 10368,
            "target" : 34962
        },
        {
            "buffer" : 0,
            "byteLength" : 1728,
            "byteOffset" : 13824,
            "target" : 34962
        },
        {
            "buffer" : 0,
            "byteLength" : 6912,
            "byteOffset" : 15552,
            "target" : 34962
        },
        {
            "buffer" : 0,
            "byteLength" : 1272,
            "byteOffset" : 22464,
            "target" : 34963
        },
        {
            "buffer" : 0,
            "byteLength" : 448,
            "byteOffset" : 23736
        },
        {
            "buffer" : 0,
            "byteLength" : 400,
            "byteOffset" : 24184
        },
        {
            "buffer" : 0,
            "byteLength" : 1200,
            "byteOffset" : 24584
        },
        {
            "buffer" : 0,
            "byteLength" : 1600,
            "byteOffset" : 25784
        },
        {
            "buffer" : 0,
            "byteLength" : 1200,
            "byteOffset" : 27384
        },
        {
            "buffer" : 0,
            "byteLength" : 1200,
            "byteOffset" : 28584
        },
        {
            "buffer" : 0,
            "byteLength" : 1600,
            "byteOffset" : 29784
        },
        {
            "buffer" : 0,
            "byteLength" : 1200,
            "byteOffset" : 31384
        },
        {
            "buffer" : 0,
            "byteLength" : 1200,
            "byteOffset" : 32584
        },
        {
            "buffer" : 0,
            "byteLength" : 1600,
            "byteOffset" : 33784
        },
        {
            "buffer" : 0,
            "byteLength" : 1200,
            "byteOffset" : 35384
        },
        {
            "buffer" : 0,
            "byteLength" : 1200,
            "byteOffset" : 36584
        },
        {
            "buffer" : 0,
            "byteLength" : 1600,
            "byteOffset" : 37784
        },
        {
            "buffer" : 0,
            "byteLength" : 1200,
            "byteOffset" : 39384
        },
        {
            "buffer" : 0,
            "byteLength" : 1200,
            "byteOffset" : 40584
        },
        {
            "buffer" : 0,
            "byteLength" : 1600,
            "byteOffset" : 41784
        },
        {
            "buffer" : 0,
            "byteLength" : 1200,
            "byteOffset" : 43384
        },
        {
            "buffer" : 0,
            "byteLength" : 1200,
            "byteOffset" : 44584
        },
        {
            "buffer" : 0,
            "byteLength" : 1600,
            "byteOffset" : 45784
        },
        {
            "buffer" : 0,
            "byteLength" : 1200,
            "byteOffset" : 47384
        },
        {
            "buffer" : 0,
            "byteLength" : 1200,
            "byteOffset" : 48584
        },
        {
            "buffer" : 0,
            "byteLength" : 1600,
            "byteOffset" : 49784
        },
        {
            "buffer" : 0,
            "byteLength" : 1200,
            "byteOffset" : 51384
        }
    ],
    "buffers" : [
        {
            "byteLength" : 52584,
            "uri" : "data:application/octet-stream;base64,"
        }
    ]
}
