{
	"asset":{
		"generator":"Khronos glTF Blender I/O v3.6.27",
		"version":"2.0"
	},
	"scene":0,
	"scenes":[
		{
			"name":"Scene",
			"nodes":[
				6
			]
		}
	],
	"nodes":[
		{
			"name":"Bone",
			"translation":[
				0,
				1,
				-4.371138828673793e-08
			]
		},
		{
			"name":"Bone.001",
			"rotation":[
				2.0371908604488453e-08,
				-1.053671194739536e-08,
				-0.7071067690849304,
				0.7071067690849304
			],
			"translation":[
				1,
				5.960464477539063e-08,
				-3.552713678800501e-15
			]
		},
		{
			"name":"Bone.004",
			"rotation":[
				-2.1855687037941607e-08,
				-5.7620454185780545e-08,
				-8.940696005765858e-08,
				1
			],
			"translation":[
				-2.43193768244374e-15,
				2,
				9.461281787865282e-16
			]
		},
		{
			"children":[
				2
			],
			"name":"Bone.002",
			"rotation":[
				1.3909066787221036e-08,
				-3.576473872612951e-08,
				-1,
				8.940696716308594e-08
			],
			"translation":[
				1.1920928955078125e-07,
				-0.9999999403953552,
				4.371138828673793e-08
			]
		},
		{
			"name":"Bone.003",
			"rotation":[
				-3.231165734973729e-08,
				6.322026280258797e-08,
				0.70710688829422,
				0.7071066498756409
			],
			"scale":[
				1,
				0.9999999403953552,
				1
			],
			"translation":[
				-0.9999998807907104,
				-1.1920928955078125e-07,
				7.105427357601002e-15
			]
		},
		{
			"mesh":0,
			"name":"box",
			"skin":0
		},
		{
			"children":[
				5,
				0,
				1,
				3,
				4
			],
			"name":"Armature",
			"rotation":[
				0.7071068286895752,
				0,
				0,
				0.7071068286895752
			]
		}
	],
	"animations":[
		{
			"channels":[
				{
					"sampler":0,
					"target":{
						"node":0,
						"path":"translation"
					}
				},
				{
					"sampler":1,
					"target":{
						"node":0,
						"path":"rotation"
					}
				},
				{
					"sampler":2,
					"target":{
						"node":0,
						"path":"scale"
					}
				},
				{
					"sampler":3,
					"target":{
						"node":1,
						"path":"translation"
					}
				},
				{
					"sampler":4,
					"target":{
						"node":1,
						"path":"rotation"
					}
				},
				{
					"sampler":5,
					"target":{
						"node":1,
						"path":"scale"
					}
				},
				{
					"sampler":6,
					"target":{
						"node":3,
						"path":"translation"
					}
				},
				{
					"sampler":7,
					"target":{
						"node":3,
						"path":"rotation"
					}
				},
				{
					"sampler":8,
					"target":{
						"node":3,
						"path":"scale"
					}
				},
				{
					"sampler":9,
					"target":{
						"node":2,
						"path":"translation"
					}
				},
				{
					"sampler":10,
					"target":{
						"node":2,
						"path":"rotation"
					}
				},
				{
					"sampler":11,
					"target":{
						"node":2,
						"path":"scale"
					}
				},
				{
					"sampler":12,
					"target":{
						"node":4,
						"path":"translation"
					}
				},
				{
					"sampler":13,
					"target":{
						"node":4,
						"path":"rotation"
					}
				},
				{
					"sampler":14,
					"target":{
						"node":4,
						"path":"scale"
					}
				}
			],
			"name":"ArmatureAction",
			"samplers":[
				{
					"input":19,
					"interpolation":"STEP",
					"output":20
				},
				{
					"input":21,
					"interpolation":"LINEAR",
					"output":22
				},
				{
					"input":19,
					"interpolation":"STEP",
					"output":23
				},
				{
					"input":19,
					"interpolation":"STEP",
					"output":24
				},
				{
					"input":21,
					"interpolation":"LINEAR",
					"output":25
				},
				{
					"input":19,
					"interpolation":"STEP",
					"output":26
				},
				{
					"input":19,
					"interpolation":"STEP",
					"output":27
				},
				{
					"input":21,
					"interpolation":"LINEAR",
					"output":28
				},
				{
					"input":19,
					"interpolation":"STEP",
					"output":29
				},
				{
					"input":19,
					"interpolation":"STEP",
					"output":30
				},
				{
					"input":21,
					"interpolation":"LINEAR",
					"output":31
				},
				{
					"input":19,
					"interpolation":"STEP",
					"output":32
				},
				{
					"input":19,
					"interpolation":"STEP",
					"output":33
				},
				{
					"input":21,
					"interpolation":"LINEAR",
					"output":34
				},
				{
					"input":19,
					"interpolation":"STEP",
					"output":35
				}
			]
		}
	],
	"materials":[
		{
			"doubleSided":true,
			"name":"Inside",
			"pbrMetallicRoughness":{
				"baseColorFactor":[
					0.800000011920929,
					0.800000011920929,
					0.800000011920929,
					1
				],
				"metallicFactor":0,
				"roughnessFactor":0.5
			}
		},
		{
			"doubleSided":true,
			"name":"Outside",
			"pbrMetallicRoughness":{
				"baseColorFactor":[
					0.800000011920929,
					0.800000011920929,
					0.800000011920929,
					1
				],
				"metallicFactor":0,
				"roughnessFactor":0.5
			}
		},
		{
			"doubleSided":true,
			"name":"Dim",
			"pbrMetallicRoughness":{
				"baseColorFactor":[
					0.800000011920929,
					0.800000011920929,
					0.800000011920929,
					1
				],
				"metallicFactor":0,
				"roughnessFactor":0.5
			}
		}
	],
	"meshes":[
		{
			"name":"Plane",
			"primitives":[
				{
					"attributes":{
						"POSITION":0,
						"NORMAL":1,
						"TEXCOORD_0":2,
						"JOINTS_0":3,
						"WEIGHTS_0":4
					},
					"indices":5,
					"material":0
				},
				{
					"attributes":{
						"POSITION":6,
						"NORMAL":7,
						"TEXCOORD_0":8,
						"JOINTS_0":9,
						"WEIGHTS_0":10
					},
					"indices":11,
					"material":1
				},
				{
					"attributes":{
						"POSITION":12,
						"NORMAL":13,
						"TEXCOORD_0":14,
						"JOINTS_0":15,
						"WEIGHTS_0":16
					},
					"indices":17,
					"material":2
				}
			]
		}
	],
	"skins":[
		{
			"inverseBindMatrices":18,
			"joints":[
				0,
				1,
				3,
				2,
				4
			],
			"name":"Armature"
		}
	],
	"accessors":[
		{
			"bufferView":0,
			"componentType":5126,
			"count":206,
			"max":[
				3.0230941772460938,
				0.036181360483169556,
				3.0230941772460938
			],
			"min":[
				-3.0230941772460938,
				0,
				-5.023094177246094
			],
			"type":"VEC3"
		},
		{
			"bufferView":1,
			"componentType":5126,
			"count":206,
			"type":"VEC3"
		},
		{
			"bufferView":2,
			"componentType":5126,
			"count":206,
			"type":"VEC2"
		},
		{
			"bufferView":3,
			"componentType":5121,
			"count":206,
			"type":"VEC4"
		},
		{
			"bufferView":4,
			"componentType":5126,
			"count":206,
			"type":"VEC4"
		},
		{
			"bufferView":5,
			"componentType":5123,
			"count":324,
			"type":"SCALAR"
		},
		{
			"bufferView":6,
			"componentType":5126,
			"count":206,
			"max":[
				3.0230941772460938,
				-0.029999997466802597,
				3.0230941772460938
			],
			"min":[
				-3.0230941772460938,
				-0.06618136167526245,
				-5.023094177246094
			],
			"type":"VEC3"
		},
		{
			"bufferView":7,
			"componentType":5126,
			"count":206,
			"type":"VEC3"
		},
		{
			"bufferView":8,
			"componentType":5126,
			"count":206,
			"type":"VEC2"
		},
		{
			"bufferView":9,
			"componentType":5121,
			"count":206,
			"type":"VEC4"
		},
		{
			"bufferView":10,
			"componentType":5126,
			"count":206,
			"type":"VEC4"
		},
		{
			"bufferView":11,
			"componentType":5123,
			"count":324,
			"type":"SCALAR"
		},
		{
			"bufferView":12,
			"componentType":5126,
			"count":500,
			"max":[
				3.0230941772460938,
				0.036181360483169556,
				3.0230941772460938
			],
			"min":[
				-3.0230941772460938,
				-0.06618136167526245,
				-5.023094177246094
			],
			"type":"VEC3"
		},
		{
			"bufferView":13,
			"componentType":5126,
			"count":500,
			"type":"VEC3"
		},
		{
			"bufferView":14,
			"componentType":5126,
			"count":500,
			"type":"VEC2"
		},
		{
			"bufferView":15,
			"componentType":5121,
			"count":500,
			"type":"VEC4"
		},
		{
			"bufferView":16,
			"componentType":5126,
			"count":500,
			"type":"VEC4"
		},
		{
			"bufferView":17,
			"componentType":5123,
			"count":756,
			"type":"SCALAR"
		},
		{
			"bufferView":18,
			"componentType":5126,
			"count":5,
			"type":"MAT4"
		},
		{
			"bufferView":19,
			"componentType":5126,
			"count":2,
			"max":[
				4.166666666666667
			],
			"min":[
				0.041666666666666664
			],
			"type":"SCALAR"
		},
		{
			"bufferView":20,
			"componentType":5126,
			"count":2,
			"type":"VEC3"
		},
		{
			"bufferView":21,
			"componentType":5126,
			"count":100,
			"max":[
				4.166666666666667
			],
			"min":[
				0.041666666666666664
			],
			"type":"SCALAR"
		},
		{
			"bufferView":22,
			"componentType":5126,
			"count":100,
			"type":"VEC4"
		},
		{
			"bufferView":23,
			"componentType":5126,
			"count":2,
			"type":"VEC3"
		},
		{
			"bufferView":24,
			"componentType":5126,
			"count":2,
			"type":"VEC3"
		},
		{
			"bufferView":25,
			"componentType":5126,
			"count":100,
			"type":"VEC4"
		},
		{
			"bufferView":26,
			"componentType":5126,
			"count":2,
			"type":"VEC3"
		},
		{
			"bufferView":27,
			"componentType":5126,
			"count":2,
			"type":"VEC3"
		},
		{
			"bufferView":28,
			"componentType":5126,
			"count":100,
			"type":"VEC4"
		},
		{
			"bufferView":29,
			"componentType":5126,
			"count":2,
			"type":"VEC3"
		},
		{
			"bufferView":30,
			"componentType":5126,
			"count":2,
			"type":"VEC3"
		},
		{
			"bufferView":31,
			"componentType":5126,
			"count":100,
			"type":"VEC4"
		},
		{
			"bufferView":32,
			"componentType":5126,
			"count":2,
			"type":"VEC3"
		},
		{
			"bufferView":33,
			"componentType":5126,
			"count":2,
			"type":"VEC3"
		},
		{
			"bufferView":34,
			"componentType":5126,
			"count":100,
			"type":"VEC4"
		},
		{
			"bufferView":35,
			"componentType":5126,
			"count":2,
			"type":"VEC3"
		}
	],
	"bufferViews":[
		{
			"buffer":0,
			"byteLength":2472,
			"byteOffset":0,
			"target":34962
		},
		{
			"buffer":0,
			"byteLength":2472,
			"byteOffset":2472,
			"target":34962
		},
		{
			"buffer":0,
			"byteLength":1648,
			"byteOffset":4944,
			"target":34962
		},
		{
			"buffer":0,
			"byteLength":824,
			"byteOffset":6592,
			"target":34962
		},
		{
			"buffer":0,
			"byteLength":3296,
			"byteOffset":7416,
			"target":34962
		},
		{
			"buffer":0,
			"byteLength":648,
			"byteOffset":10712,
			"target":34963
		},
		{
			"buffer":0,
			"byteLength":2472,
			"byteOffset":11360,
			"target":34962
		},
		{
			"buffer":0,
			"byteLength":2472,
			"byteOffset":13832,
			"target":34962
		},
		{
			"buffer":0,
			"byteLength":1648,
			"byteOffset":16304,
			"target":34962
		},
		{
			"buffer":0,
			"byteLength":824,
			"byteOffset":17952,
			"target":34962
		},
		{
			"buffer":0,
			"byteLength":3296,
			"byteOffset":18776,
			"target":34962
		},
		{
			"buffer":0,
			"byteLength":648,
			"byteOffset":22072,
			"target":34963
		},
		{
			"buffer":0,
			"byteLength":6000,
			"byteOffset":22720,
			"target":34962
		},
		{
			"buffer":0,
			"byteLength":6000,
			"byteOffset":28720,
			"target":34962
		},
		{
			"buffer":0,
			"byteLength":4000,
			"byteOffset":34720,
			"target":34962
		},
		{
			"buffer":0,
			"byteLength":2000,
			"byteOffset":38720,
			"target":34962
		},
		{
			"buffer":0,
			"byteLength":8000,
			"byteOffset":40720,
			"target":34962
		},
		{
			"buffer":0,
			"byteLength":1512,
			"byteOffset":48720,
			"target":34963
		},
		{
			"buffer":0,
			"byteLength":320,
			"byteOffset":50232
		},
		{
			"buffer":0,
			"byteLength":8,
			"byteOffset":50552
		},
		{
			"buffer":0,
			"byteLength":24,
			"byteOffset":50560
		},
		{
			"buffer":0,
			"byteLength":400,
			"byteOffset":50584
		},
		{
			"buffer":0,
			"byteLength":1600,
			"byteOffset":50984
		},
		{
			"buffer":0,
			"byteLength":24,
			"byteOffset":52584
		},
		{
			"buffer":0,
			"byteLength":24,
			"byteOffset":52608
		},
		{
			"buffer":0,
			"byteLength":1600,
			"byteOffset":52632
		},
		{
			"buffer":0,
			"byteLength":24,
			"byteOffset":54232
		},
		{
			"buffer":0,
			"byteLength":24,
			"byteOffset":54256
		},
		{
			"buffer":0,
			"byteLength":1600,
			"byteOffset":54280
		},
		{
			"buffer":0,
			"byteLength":24,
			"byteOffset":55880
		},
		{
			"buffer":0,
			"byteLength":24,
			"byteOffset":55904
		},
		{
			"buffer":0,
			"byteLength":1600,
			"byteOffset":55928
		},
		{
			"buffer":0,
			"byteLength":24,
			"byteOffset":57528
		},
		{
			"buffer":0,
			"byteLength":24,
			"byteOffset":57552
		},
		{
			"buffer":0,
			"byteLength":1600,
			"byteOffset":57576
		},
		{
			"buffer":0,
			"byteLength":24,
			"byteOffset":59176
		}
	],
	"buffers":[
		{
			"byteLength":59200,
			"uri":"data:application/octet-stream;base64,"
		}
	]
}
