{
	"asset":{
		"generator":"Khronos glTF Blender I/O v3.6.27",
		"version":"2.0"
	},
	"scene":0,
	"scenes":[
		{
			"name":"Scene",
			"nodes":[
				10
			]
		}
	],
	"nodes":[
		{
			"name":"Bone.006",
			"rotation":[
				0,
				0,
				-2.0194839173657902e-28,
				1
			],
			"translation":[
				-1.0436096431476471e-14,
				1,
				1.4210854715202004e-14
			]
		},
		{
			"children":[
				0
			],
			"name":"Bone.005",
			"rotation":[
				1.2644053981603065e-07,
				-4.214684778958144e-08,
				0.7071067690849304,
				0.7071067690849304
			],
			"translation":[
				-5.329070518200751e-15,
				1,
				7.105427357601002e-15
			]
		},
		{
			"children":[
				1
			],
			"name":"Bone.004",
			"translation":[
				-5.329070518200751e-15,
				1,
				7.105427357601002e-15
			]
		},
		{
			"children":[
				2
			],
			"name":"Bone.003",
			"rotation":[
				-2.6692537957728746e-08,
				-2.6692537957728746e-08,
				-0.7071067690849304,
				0.7071067690849304
			],
			"translation":[
				0,
				1,
				0
			]
		},
		{
			"children":[
				3
			],
			"name":"Bone.001",
			"translation":[
				0,
				1,
				4.371138828673793e-08
			]
		},
		{
			"name":"Bone.008",
			"rotation":[
				1.7763570511584873e-15,
				-7.105427357601002e-15,
				-1.776932451227469e-16,
				1
			],
			"translation":[
				7.549516567451064e-15,
				1,
				1.0658140189368556e-14
			]
		},
		{
			"children":[
				5
			],
			"name":"Bone.007",
			"rotation":[
				-1.0115105197883167e-07,
				-2.528950204805369e-08,
				0.7071067690849304,
				0.7071067690849304
			],
			"translation":[
				-2.1311577651813955e-15,
				1,
				3.552713678800501e-15
			]
		},
		{
			"children":[
				6
			],
			"name":"Bone.002",
			"rotation":[
				-6.322026990801533e-08,
				3.231165734973729e-08,
				0.7071067690849304,
				0.7071067690849304
			],
			"translation":[
				-1,
				5.960464477539063e-08,
				3.552713678800501e-15
			]
		},
		{
			"name":"neutral_bone",
			"rotation":[
				-0.7071067690849304,
				0,
				0,
				0.7071067690849304
			]
		},
		{
			"mesh":0,
			"name":"box",
			"skin":0
		},
		{
			"children":[
				9,
				4,
				7,
				8
			],
			"name":"Armature",
			"rotation":[
				-0.7071068286895752,
				0,
				0,
				0.7071068286895752
			]
		}
	],
	"animations":[
		{
			"channels":[
				{
					"sampler":0,
					"target":{
						"node":4,
						"path":"translation"
					}
				},
				{
					"sampler":1,
					"target":{
						"node":4,
						"path":"rotation"
					}
				},
				{
					"sampler":2,
					"target":{
						"node":4,
						"path":"scale"
					}
				},
				{
					"sampler":3,
					"target":{
						"node":3,
						"path":"translation"
					}
				},
				{
					"sampler":4,
					"target":{
						"node":3,
						"path":"rotation"
					}
				},
				{
					"sampler":5,
					"target":{
						"node":3,
						"path":"scale"
					}
				},
				{
					"sampler":6,
					"target":{
						"node":2,
						"path":"translation"
					}
				},
				{
					"sampler":7,
					"target":{
						"node":2,
						"path":"rotation"
					}
				},
				{
					"sampler":8,
					"target":{
						"node":2,
						"path":"scale"
					}
				},
				{
					"sampler":9,
					"target":{
						"node":1,
						"path":"translation"
					}
				},
				{
					"sampler":10,
					"target":{
						"node":1,
						"path":"rotation"
					}
				},
				{
					"sampler":11,
					"target":{
						"node":1,
						"path":"scale"
					}
				},
				{
					"sampler":12,
					"target":{
						"node":0,
						"path":"translation"
					}
				},
				{
					"sampler":13,
					"target":{
						"node":0,
						"path":"rotation"
					}
				},
				{
					"sampler":14,
					"target":{
						"node":0,
						"path":"scale"
					}
				},
				{
					"sampler":15,
					"target":{
						"node":7,
						"path":"translation"
					}
				},
				{
					"sampler":16,
					"target":{
						"node":7,
						"path":"rotation"
					}
				},
				{
					"sampler":17,
					"target":{
						"node":7,
						"path":"scale"
					}
				},
				{
					"sampler":18,
					"target":{
						"node":6,
						"path":"translation"
					}
				},
				{
					"sampler":19,
					"target":{
						"node":6,
						"path":"rotation"
					}
				},
				{
					"sampler":20,
					"target":{
						"node":6,
						"path":"scale"
					}
				},
				{
					"sampler":21,
					"target":{
						"node":5,
						"path":"translation"
					}
				},
				{
					"sampler":22,
					"target":{
						"node":5,
						"path":"rotation"
					}
				},
				{
					"sampler":23,
					"target":{
						"node":5,
						"path":"scale"
					}
				}
			],
			"name":"ArmatureAction",
			"samplers":[
				{
					"input":19,
					"interpolation":"STEP",
					"output":20
				},
				{
					"input":21,
					"interpolation":"LINEAR",
					"output":22
				},
				{
					"input":19,
					"interpolation":"STEP",
					"output":23
				},
				{
					"input":19,
					"interpolation":"STEP",
					"output":24
				},
				{
					"input":19,
					"interpolation":"STEP",
					"output":25
				},
				{
					"input":19,
					"interpolation":"STEP",
					"output":26
				},
				{
					"input":19,
					"interpolation":"STEP",
					"output":27
				},
				{
					"input":21,
					"interpolation":"LINEAR",
					"output":28
				},
				{
					"input":19,
					"interpolation":"STEP",
					"output":29
				},
				{
					"input":19,
					"interpolation":"STEP",
					"output":30
				},
				{
					"input":19,
					"interpolation":"STEP",
					"output":31
				},
				{
					"input":19,
					"interpolation":"STEP",
					"output":32
				},
				{
					"input":19,
					"interpolation":"STEP",
					"output":33
				},
				{
					"input":21,
					"interpolation":"LINEAR",
					"output":34
				},
				{
					"input":19,
					"interpolation":"STEP",
					"output":35
				},
				{
					"input":19,
					"interpolation":"STEP",
					"output":36
				},
				{
					"input":21,
					"interpolation":"LINEAR",
					"output":37
				},
				{
					"input":19,
					"interpolation":"STEP",
					"output":38
				},
				{
					"input":19,
					"interpolation":"STEP",
					"output":39
				},
				{
					"input":19,
					"interpolation":"STEP",
					"output":40
				},
				{
					"input":19,
					"interpolation":"STEP",
					"output":41
				},
				{
					"input":19,
					"interpolation":"STEP",
					"output":42
				},
				{
					"input":21,
					"interpolation":"LINEAR",
					"output":43
				},
				{
					"input":19,
					"interpolation":"STEP",
					"output":44
				}
			]
		}
	],
	"materials":[
		{
			"doubleSided":true,
			"name":"Inner",
			"pbrMetallicRoughness":{
				"baseColorFactor":[
					0.800000011920929,
					0.800000011920929,
					0.800000011920929,
					1
				],
				"metallicFactor":0,
				"roughnessFactor":0.5
			}
		},
		{
			"doubleSided":true,
			"name":"Outer",
			"pbrMetallicRoughness":{
				"baseColorFactor":[
					0.800000011920929,
					0.800000011920929,
					0.800000011920929,
					1
				],
				"metallicFactor":0,
				"roughnessFactor":0.5
			}
		},
		{
			"doubleSided":true,
			"name":"Dim",
			"pbrMetallicRoughness":{
				"baseColorFactor":[
					0.800000011920929,
					0.800000011920929,
					0.800000011920929,
					1
				],
				"metallicFactor":0,
				"roughnessFactor":0.5
			}
		}
	],
	"meshes":[
		{
			"name":"Plane",
			"primitives":[
				{
					"attributes":{
						"POSITION":0,
						"NORMAL":1,
						"TEXCOORD_0":2,
						"JOINTS_0":3,
						"WEIGHTS_0":4
					},
					"indices":5,
					"material":0
				},
				{
					"attributes":{
						"POSITION":6,
						"NORMAL":7,
						"TEXCOORD_0":8,
						"JOINTS_0":9,
						"WEIGHTS_0":10
					},
					"indices":11,
					"material":1
				},
				{
					"attributes":{
						"POSITION":12,
						"NORMAL":13,
						"TEXCOORD_0":14,
						"JOINTS_0":15,
						"WEIGHTS_0":16
					},
					"indices":17,
					"material":2
				}
			]
		}
	],
	"skins":[
		{
			"inverseBindMatrices":18,
			"joints":[
				4,
				3,
				2,
				1,
				0,
				7,
				6,
				5,
				8
			],
			"name":"Armature"
		}
	],
	"accessors":[
		{
			"bufferView":0,
			"componentType":5126,
			"count":236,
			"max":[
				3.0212130546569824,
				0.05910427123308182,
				3.0173206329345703
			],
			"min":[
				-3.0212130546569824,
				0.029999997466802597,
				-5.01732063293457
			],
			"type":"VEC3"
		},
		{
			"bufferView":1,
			"componentType":5126,
			"count":236,
			"type":"VEC3"
		},
		{
			"bufferView":2,
			"componentType":5126,
			"count":236,
			"type":"VEC2"
		},
		{
			"bufferView":3,
			"componentType":5121,
			"count":236,
			"type":"VEC4"
		},
		{
			"bufferView":4,
			"componentType":5126,
			"count":236,
			"type":"VEC4"
		},
		{
			"bufferView":5,
			"componentType":5123,
			"count":378,
			"type":"SCALAR"
		},
		{
			"bufferView":6,
			"componentType":5126,
			"count":240,
			"max":[
				3.0212130546569824,
				0.02121320180594921,
				3.0173206329345703
			],
			"min":[
				-3.0212130546569824,
				-0.027136020362377167,
				-5.01732063293457
			],
			"type":"VEC3"
		},
		{
			"bufferView":7,
			"componentType":5126,
			"count":240,
			"type":"VEC3"
		},
		{
			"bufferView":8,
			"componentType":5126,
			"count":240,
			"type":"VEC2"
		},
		{
			"bufferView":9,
			"componentType":5121,
			"count":240,
			"type":"VEC4"
		},
		{
			"bufferView":10,
			"componentType":5126,
			"count":240,
			"type":"VEC4"
		},
		{
			"bufferView":11,
			"componentType":5123,
			"count":378,
			"type":"SCALAR"
		},
		{
			"bufferView":12,
			"componentType":5126,
			"count":556,
			"max":[
				3.0212130546569824,
				0.05910427123308182,
				3.0173206329345703
			],
			"min":[
				-3.0212130546569824,
				-0.027136020362377167,
				-5.01732063293457
			],
			"type":"VEC3"
		},
		{
			"bufferView":13,
			"componentType":5126,
			"count":556,
			"type":"VEC3"
		},
		{
			"bufferView":14,
			"componentType":5126,
			"count":556,
			"type":"VEC2"
		},
		{
			"bufferView":15,
			"componentType":5121,
			"count":556,
			"type":"VEC4"
		},
		{
			"bufferView":16,
			"componentType":5126,
			"count":556,
			"type":"VEC4"
		},
		{
			"bufferView":17,
			"componentType":5123,
			"count":864,
			"type":"SCALAR"
		},
		{
			"bufferView":18,
			"componentType":5126,
			"count":9,
			"type":"MAT4"
		},
		{
			"bufferView":19,
			"componentType":5126,
			"count":2,
			"max":[
				4.166666666666667
			],
			"min":[
				0.041666666666666664
			],
			"type":"SCALAR"
		},
		{
			"bufferView":20,
			"componentType":5126,
			"count":2,
			"type":"VEC3"
		},
		{
			"bufferView":21,
			"componentType":5126,
			"count":100,
			"max":[
				4.166666666666667
			],
			"min":[
				0.041666666666666664
			],
			"type":"SCALAR"
		},
		{
			"bufferView":22,
			"componentType":5126,
			"count":100,
			"type":"VEC4"
		},
		{
			"bufferView":23,
			"componentType":5126,
			"count":2,
			"type":"VEC3"
		},
		{
			"bufferView":24,
			"componentType":5126,
			"count":2,
			"type":"VEC3"
		},
		{
			"bufferView":25,
			"componentType":5126,
			"count":2,
			"type":"VEC4"
		},
		{
			"bufferView":26,
			"componentType":5126,
			"count":2,
			"type":"VEC3"
		},
		{
			"bufferView":27,
			"componentType":5126,
			"count":2,
			"type":"VEC3"
		},
		{
			"bufferView":28,
			"componentType":5126,
			"count":100,
			"type":"VEC4"
		},
		{
			"bufferView":29,
			"componentType":5126,
			"count":2,
			"type":"VEC3"
		},
		{
			"bufferView":30,
			"componentType":5126,
			"count":2,
			"type":"VEC3"
		},
		{
			"bufferView":31,
			"componentType":5126,
			"count":2,
			"type":"VEC4"
		},
		{
			"bufferView":32,
			"componentType":5126,
			"count":2,
			"type":"VEC3"
		},
		{
			"bufferView":33,
			"componentType":5126,
			"count":2,
			"type":"VEC3"
		},
		{
			"bufferView":34,
			"componentType":5126,
			"count":100,
			"type":"VEC4"
		},
		{
			"bufferView":35,
			"componentType":5126,
			"count":2,
			"type":"VEC3"
		},
		{
			"bufferView":36,
			"componentType":5126,
			"count":2,
			"type":"VEC3"
		},
		{
			"bufferView":37,
			"componentType":5126,
			"count":100,
			"type":"VEC4"
		},
		{
			"bufferView":38,
			"componentType":5126,
			"count":2,
			"type":"VEC3"
		},
		{
			"bufferView":39,
			"componentType":5126,
			"count":2,
			"type":"VEC3"
		},
		{
			"bufferView":40,
			"componentType":5126,
			"count":2,
			"type":"VEC4"
		},
		{
			"bufferView":41,
			"componentType":5126,
			"count":2,
			"type":"VEC3"
		},
		{
			"bufferView":42,
			"componentType":5126,
			"count":2,
			"type":"VEC3"
		},
		{
			"bufferView":43,
			"componentType":5126,
			"count":100,
			"type":"VEC4"
		},
		{
			"bufferView":44,
			"componentType":5126,
			"count":2,
			"type":"VEC3"
		}
	],
	"bufferViews":[
		{
			"buffer":0,
			"byteLength":2832,
			"byteOffset":0,
			"target":34962
		},
		{
			"buffer":0,
			"byteLength":2832,
			"byteOffset":2832,
			"target":34962
		},
		{
			"buffer":0,
			"byteLength":1888,
			"byteOffset":5664,
			"target":34962
		},
		{
			"buffer":0,
			"byteLength":944,
			"byteOffset":7552,
			"target":34962
		},
		{
			"buffer":0,
			"byteLength":3776,
			"byteOffset":8496,
			"target":34962
		},
		{
			"buffer":0,
			"byteLength":756,
			"byteOffset":12272,
			"target":34963
		},
		{
			"buffer":0,
			"byteLength":2880,
			"byteOffset":13028,
			"target":34962
		},
		{
			"buffer":0,
			"byteLength":2880,
			"byteOffset":15908,
			"target":34962
		},
		{
			"buffer":0,
			"byteLength":1920,
			"byteOffset":18788,
			"target":34962
		},
		{
			"buffer":0,
			"byteLength":960,
			"byteOffset":20708,
			"target":34962
		},
		{
			"buffer":0,
			"byteLength":3840,
			"byteOffset":21668,
			"target":34962
		},
		{
			"buffer":0,
			"byteLength":756,
			"byteOffset":25508,
			"target":34963
		},
		{
			"buffer":0,
			"byteLength":6672,
			"byteOffset":26264,
			"target":34962
		},
		{
			"buffer":0,
			"byteLength":6672,
			"byteOffset":32936,
			"target":34962
		},
		{
			"buffer":0,
			"byteLength":4448,
			"byteOffset":39608,
			"target":34962
		},
		{
			"buffer":0,
			"byteLength":2224,
			"byteOffset":44056,
			"target":34962
		},
		{
			"buffer":0,
			"byteLength":8896,
			"byteOffset":46280,
			"target":34962
		},
		{
			"buffer":0,
			"byteLength":1728,
			"byteOffset":55176,
			"target":34963
		},
		{
			"buffer":0,
			"byteLength":576,
			"byteOffset":56904
		},
		{
			"buffer":0,
			"byteLength":8,
			"byteOffset":57480
		},
		{
			"buffer":0,
			"byteLength":24,
			"byteOffset":57488
		},
		{
			"buffer":0,
			"byteLength":400,
			"byteOffset":57512
		},
		{
			"buffer":0,
			"byteLength":1600,
			"byteOffset":57912
		},
		{
			"buffer":0,
			"byteLength":24,
			"byteOffset":59512
		},
		{
			"buffer":0,
			"byteLength":24,
			"byteOffset":59536
		},
		{
			"buffer":0,
			"byteLength":32,
			"byteOffset":59560
		},
		{
			"buffer":0,
			"byteLength":24,
			"byteOffset":59592
		},
		{
			"buffer":0,
			"byteLength":24,
			"byteOffset":59616
		},
		{
			"buffer":0,
			"byteLength":1600,
			"byteOffset":59640
		},
		{
			"buffer":0,
			"byteLength":24,
			"byteOffset":61240
		},
		{
			"buffer":0,
			"byteLength":24,
			"byteOffset":61264
		},
		{
			"buffer":0,
			"byteLength":32,
			"byteOffset":61288
		},
		{
			"buffer":0,
			"byteLength":24,
			"byteOffset":61320
		},
		{
			"buffer":0,
			"byteLength":24,
			"byteOffset":61344
		},
		{
			"buffer":0,
			"byteLength":1600,
			"byteOffset":61368
		},
		{
			"buffer":0,
			"byteLength":24,
			"byteOffset":62968
		},
		{
			"buffer":0,
			"byteLength":24,
			"byteOffset":62992
		},
		{
			"buffer":0,
			"byteLength":1600,
			"byteOffset":63016
		},
		{
			"buffer":0,
			"byteLength":24,
			"byteOffset":64616
		},
		{
			"buffer":0,
			"byteLength":24,
			"byteOffset":64640
		},
		{
			"buffer":0,
			"byteLength":32,
			"byteOffset":64664
		},
		{
			"buffer":0,
			"byteLength":24,
			"byteOffset":64696
		},
		{
			"buffer":0,
			"byteLength":24,
			"byteOffset":64720
		},
		{
			"buffer":0,
			"byteLength":1600,
			"byteOffset":64744
		},
		{
			"buffer":0,
			"byteLength":24,
			"byteOffset":66344
		}
	],
	"buffers":[
		{
			"byteLength":66368,
			"uri":"data:application/octet-stream;base64,"
		}
	]
}
